# AST/ASF file generated using VICON BodyLanguage
# -----------------------------------------------
:version 1.10
:name VICON
:units
  mass 1.0
  length 0.45
  angle deg
:documentation
   .ast/.asf automatically generated from VICON data using
   VICON BodyBuilder and BodyLanguage model FoxedUp or BRILLIANT.MOD
:root
   order TX TY TZ RX RY RZ
   axis XYZ
   position 0 0 0  
   orientation 0 0 0 
:bonedata
  begin
     id 1 
     name lhipjoint
     direction 0.710188 -0.616876 0.339259 
     length 2.5669 
     axis 0 0 0  XYZ
  end
  begin
     id 2 
     name lfemur
     direction 0.34202 -0.939693 0  
     length 7.12796  
     axis 0 0 20  XYZ
    dof rx ry rz
    limits (-160.0 20.0)
           (-70.0 70.0)
           (-60.0 70.0)
  end
  begin
     id 3 
     name ltibia
     direction 0.34202 -0.939693 0   
     length 7.58108   
     axis 0 0 20   XYZ
    dof rx
    limits (-10.0 170.0)
  end
  begin
     id 4 
     name lfoot
     direction 0.0669471 -0.183936 0.980656   
     length 2.17365   
     axis -90 7.62852e-016 20   XYZ
    dof rx rz
    limits (-45.0 90.0)
           (-70.0 20.0)
  end
  begin
     id 5 
     name ltoes
     direction 1.53508e-011 -4.21705e-011 1   
     length 1.09427   
     axis -90 7.62852e-016 20   XYZ
    dof rx
    limits (-90.0 20.0)
  end
  begin
     id 6 
     name rhipjoint
     direction -0.700191 -0.625589 0.34405   
     length 2.53115  
     axis 0 0 0  XYZ 
  end
  begin
     id 7 
     name rfemur
     direction -0.34202 -0.939693 0   
     length 7.33006   
     axis 0 0 -20   XYZ
    dof rx ry rz
    limits (-160.0 20.0)
           (-70.0 70.0)
           (-70.0 60.0)
  end
  begin
     id 8 
     name rtibia
     direction -0.34202 -0.939693 0   
     length 7.64926   
     axis 0 0 -20   XYZ
    dof rx
    limits (-10.0 170.0)
 end
 begin
     id 9 
     name rfoot
     direction -0.0688927 -0.189281 0.979503   
     length 2.20493  
     axis -90 -7.62852e-016 -20   XYZ
    dof rx rz
    limits (-45.0 90.0)
           (-20.0 70.0)
  end
  begin
     id 10 
     name rtoes
     direction -1.53567e-011 -4.21933e-011 1   
     length 1.10919   
     axis -90 -7.62852e-016 -20   XYZ
    dof rx
    limits (-90.0 20.0)
  end
  begin
     id 11 
     name lowerback
     direction -0.0167868 0.989873 -0.140959   
     length 2.14596   
     axis 0 0 0   XYZ
    dof rx ry rz
    limits (-20.0 45.0)
           (-30.0 30.0)
           (-30.0 30.0)
  end
  begin
     id 12 
     name upperback
     direction 0.0129109 0.998033 0.0613525   
     length 2.10457   
     axis 0 0 0   XYZ
    dof rx ry rz
    limits (-20.0 45.0)
           (-30.0 30.0)
           (-30.0 30.0)
  end
  begin
     id 13 
     name thorax
     direction 0.0177047 0.991119 0.131797   
     length 2.17652   
     axis 0 0 0   XYZ
    dof rx ry rz
    limits (-20.0 45.0)
           (-30.0 30.0)
           (-30.0 30.0)
  end
  begin
     id 14 
     name lowerneck
     direction -0.0336893 0.997548 0.0613464   
     length 1.8912   
     axis 0 0 0   XYZ
    dof rx ry rz
    limits (-20.0 45.0)
           (-30.0 30.0)
           (-30.0 30.0)
  end
  begin
     id 15 
     name upperneck
     direction 0.0435909 0.997179 -0.0611028   
     length 1.8829   
     axis 0 0 0   XYZ
    dof rx ry rz
    limits (-20.0 45.0)
           (-30.0 30.0)
           (-30.0 30.0)
  end
  begin
     id 16
     name head
     direction 0.0175076 0.999444 -0.0283782  
     length 1.93197  
     axis 0 0 0   XYZ
    dof rx ry rz
    limits (-20.0 45.0)
           (-30.0 30.0)
           (-30.0 30.0)
  end
  begin
     id 17 
     name lclavicle
     direction 0.919164 0.389875 0.0559876  
     length 3.60004  
     axis 0 0 0   XYZ
    dof ry rz
    limits (-20.0 10.0)
           (0.0 20.0)
  end
  begin
     id 18 
     name lhumerus
     direction 1 -4.48958e-011 6.89191e-027   
     length 5.43301   
     axis 180 -30 -90   XYZ
    dof rx ry rz
    limits (-60.0 90.0)
           (-90.0 90.0)
           (-90.0 90.0)
  end
  begin
     id 19
     name lradius
     direction 1 -4.4897e-011 3.24727e-027   
     length 3.15936   
     axis 180 -30 -90   XYZ
    dof rx
    limits (-10.0 170.0)
  end
  begin
     id 20
     name lwrist
     direction 1 -4.4897e-011 9.00228e-027   
     length 1.57968   
     axis -6.29373e-015 90 90   XYZ
    dof ry
    limits (-180.0 0.0)
 end
  begin
     id 21 
     name lhand
     direction 1 -4.48968e-011 1.80042e-026   
     length 0.712827   
     axis -1.14882e-014 90 90   XYZ
    dof rx rz
    limits (-90.0 90.0)
           (-45.0 45.0)
  end
  begin
     id 22 
     name lfingers
     direction 1 -4.49019e-011 3.60267e-026   
     length 0.574699   
     axis -2.29769e-014 90 90   XYZ
    dof rx
    limits (0.0 90.0)
  end
  begin
     id 23
     name lthumb
     direction 0.707107 -6.3498e-011 0.707107   
     length 0.825157   
     axis -90 45 5.37419e-014   XYZ
    dof rx rz
    limits (-45.0 45.0)
           (-45.0 45.0)
  end
  begin
     id 24 
     name rclavicle
     direction -0.890334 0.455305 -0.00132111   
     length 3.51494  
     axis 0 0 0   XYZ 
    dof ry rz
    limits (-10.0 20.0)
           (-20.0 0.0)
  end
  begin
     id 25 
     name rhumerus
     direction -1 -4.48967e-011 5.07175e-028  
     length 5.34194   
     axis 180 30 90   XYZ
    dof rx ry rz
    limits (-90.0 60.0)
           (-90.0 90.0)
           (-90.0 90.0)
  end
  begin
     id 26 
     name rradius
     direction -1 -4.48955e-011 3.30467e-027   
     length 3.19351   
     axis 180 30 90   XYZ
    dof rx
    limits (-10.0 170.0)
  end
  begin
     id 27 
     name rwrist
     direction -1 -4.48968e-011 9.00208e-027   
     length 1.59676   
     axis -6.29373e-015 -90 -90   XYZ
    dof ry
    limits (-180.0 0.0)
  end
  begin
     id 28
     name rhand
     direction -1 -4.49e-011 1.80099e-026   
     length 0.743862   
     axis -1.14882e-014 -90 -90   XYZ
    dof rx rz
    limits (-90.0 90.0)
           (-45.0 45.0)
  end
  begin
     id 29
     name rfingers
     direction -1 -4.49009e-011 3.6023e-026   
     length 0.599721   
     axis -2.29769e-014 -90 -90   XYZ
    dof rx
    limits (0.0 90.0)
  end
  begin
     id 30
     name rthumb
     direction -0.707107 -6.35025e-011 0.707107   
     length 0.861083   
     axis -90 -45 -5.37419e-014   XYZ
    dof rx rz
    limits (-45.0 45.0)
           (-45.0 45.0)
  end
:hierarchy
  begin
    root lhipjoint rhipjoint lowerback
    lhipjoint lfemur
    lfemur ltibia
    ltibia lfoot
    lfoot ltoes
    rhipjoint rfemur
    rfemur rtibia
    rtibia rfoot
    rfoot rtoes
    lowerback upperback
    upperback thorax
    thorax lowerneck lclavicle rclavicle
    lowerneck upperneck
    upperneck head
    lclavicle lhumerus
    lhumerus lradius
    lradius lwrist
    lwrist lhand lthumb
    lhand lfingers
    rclavicle rhumerus
    rhumerus rradius
    rradius rwrist
    rwrist rhand rthumb
    rhand rfingers
  end

#!OML:ASF H:\Martial Arts Walks\Project 1\Capture day 1\Session 1\male.ASF
:FULLY-SPECIFIED
:DEGREES
369
root -4.0374 14.2442 -20.1053 5.1065 21.7798 3.81906
lowerback 12.7889 1.61758 -9.80992
upperback -0.48763 0.723352 0.769807
thorax -7.886 0.772892 6.24786
lowerneck 1.2172 -8.78097 -10.4989
upperneck 2.43644 -12.1252 12.03
head 1.90664 -6.06157 5.00917
rclavicle -8.05326e-014 -4.17448e-015
rhumerus -19.9626 16.5554 -60.2857
rradius 87.1393
rwrist -4.72168
rhand -20.2276 -37.9286
rfingers 7.12502
rthumb 6.12006 -67.8202
lclavicle -8.05326e-014 -4.17448e-015
lhumerus -26.9301 -29.0768 91.6738
lradius 102.58
lwrist 31.6065
lhand -16.3403 7.31418
lfingers 7.12502
lthumb 9.8719 37.0627
rfemur -61.7115 -20.5587 13.9207
rtibia 75.2186
rfoot -13.271 10.9947
rtoes 0.353173
lfemur 4.38334 5.02693 -10.343
ltibia 45.7059
lfoot -32.5406 34.4714
ltoes -21.1434
370
root -4.0407 14.2415 -20.1025 5.21655 21.9362 3.86758
lowerback 12.9471 1.62622 -9.6745
upperback -0.481285 0.737408 0.754471
thorax -7.96869 0.77758 6.15092
lowerneck 1.26978 -8.83646 -10.5066
upperneck 2.19978 -12.1901 12.1294
head 1.84283 -6.09722 5.04447
rclavicle -1.36416e-014 9.34288e-015
rhumerus -20.2043 16.2645 -60.0418
rradius 87.2367
rwrist -4.72436
rhand -20.0842 -37.7861
rfingers 7.12502
rthumb 6.25848 -67.6737
lclavicle -1.36416e-014 9.34288e-015
lhumerus -26.0994 -29.3676 91.4376
lradius 102.208
lwrist 31.4887
lhand -16.5421 7.04659
lfingers 7.12502
lthumb 9.67713 36.8043
rfemur -61.9881 -20.7556 14.0486
rtibia 75.4823
rfoot -13.1112 10.6087
rtoes 0.313109
lfemur 4.22171 4.91116 -10.3568
ltibia 45.7604
lfoot -32.5515 34.4593
ltoes -21.4025
371
root -4.04418 14.2334 -20.096 5.35061 22.0978 3.94911
lowerback 13.0774 1.64799 -9.56668
upperback -0.479137 0.766415 0.720739
thorax -8.04295 0.78983 6.0465
lowerneck 1.35886 -8.88633 -10.4445
upperneck 1.88598 -12.2426 12.2045
head 1.74328 -6.12843 5.06628
rclavicle -1.68967e-014 7.95139e-015
rhumerus -20.6531 15.894 -59.8765
rradius 87.3947
rwrist -4.63653
rhand -20.0862 -37.7843
rfingers 7.12502
rthumb 6.25659 -67.6719
lclavicle -1.68967e-014 7.95139e-015
lhumerus -25.0799 -29.7346 91.2092
lradius 101.713
lwrist 31.2152
lhand -16.8145 6.64407
lfingers 7.12502
lthumb 9.41433 36.4138
rfemur -62.3757 -21.0673 14.3365
rtibia 75.822
rfoot -12.9349 9.85935
rtoes -0.430445
lfemur 4.07324 4.8242 -10.3661
ltibia 45.8104
lfoot -32.5524 34.4414
ltoes -21.5551
372
root -4.04856 14.2277 -20.0921 5.48533 22.3485 4.07698
lowerback 13.3177 1.62214 -9.50897
upperback -0.449388 0.717028 0.722588
thorax -8.13714 0.767082 6.02562
lowerneck 1.31824 -8.95932 -10.4495
upperneck 1.67368 -12.3237 12.2705
head 1.70161 -6.16935 5.08514
rclavicle -6.70898e-016 8.34896e-015
rhumerus -20.8324 15.6043 -59.5767
rradius 87.4047
rwrist -4.56932
rhand -19.9986 -37.6445
rfingers 7.12502
rthumb 6.34115 -67.5296
lclavicle -6.70898e-016 8.34896e-015
lhumerus -23.9661 -30.0239 90.9466
lradius 101.234
lwrist 30.7186
lhand -16.7382 6.27701
lfingers 7.12502
lthumb 9.48797 36.0434
rfemur -62.836 -21.5632 14.7159
rtibia 76.2218
rfoot -12.4788 8.87915
rtoes 0.37107
lfemur 3.89395 4.63583 -10.4358
ltibia 45.8499
lfoot -32.4827 34.4548
ltoes -21.6781
373
root -4.05584 14.2244 -20.0834 5.62329 22.6343 4.18173
lowerback 13.5065 1.58588 -9.46301
upperback -0.397083 0.660045 0.738466
thorax -8.17631 0.738074 6.02871
lowerneck 1.28159 -8.99937 -10.4227
upperneck 1.36082 -12.3528 12.3498
head 1.62285 -6.18545 5.10871
rclavicle 1.11568e-014 -3.06128e-014
rhumerus -21.0657 15.2807 -59.2639
rradius 87.3944
rwrist -4.4897
rhand -20.0181 -37.5634
rfingers 7.12502
rthumb 6.32233 -67.4491
lclavicle 1.11568e-014 -3.06128e-014
lhumerus -22.6342 -30.3783 90.6911
lradius 100.676
lwrist 30.1616
lhand -16.9666 5.85991
lfingers 7.12502
lthumb 9.26756 35.6362
rfemur -63.3426 -22.0988 15.2255
rtibia 76.6815
rfoot -12.1315 7.47284
rtoes 0.562949
lfemur 3.72829 4.37111 -10.472
ltibia 45.8491
lfoot -32.4211 34.4537
ltoes -21.8112
374
root -4.06214 14.218 -20.0744 5.84529 22.9033 4.38906
lowerback 13.6641 1.53216 -9.49818
upperback -0.336202 0.569194 0.734964
thorax -8.1834 0.693832 6.06416
lowerneck 1.1874 -9.03445 -10.3311
upperneck 1.03611 -12.3668 12.3669
head 1.54026 -6.19244 5.10211
rclavicle -4.64659e-014 1.98785e-015
rhumerus -21.3531 14.9682 -58.9384
rradius 87.4316
rwrist -4.36026
rhand -20.0172 -37.5191
rfingers 7.12502
rthumb 6.32325 -67.4048
lclavicle -4.64659e-014 1.98785e-015
lhumerus -21.1017 -30.708 90.3723
lradius 100.086
lwrist 29.6075
lhand -17.1036 5.60273
lfingers 7.12502
lthumb 9.13542 35.3849
rfemur -63.9634 -22.7142 15.7746
rtibia 77.1448
rfoot -11.6606 5.55143
rtoes 0.692534
lfemur 3.5479 4.1388 -10.6069
ltibia 45.8102
lfoot -32.3617 34.4419
ltoes -22.005
375
root -4.06864 14.2126 -20.0622 6.11069 23.2201 4.66042
lowerback 13.8512 1.45429 -9.56762
upperback -0.293914 0.435828 0.723339
thorax -8.22037 0.632478 6.11964
lowerneck 1.09998 -9.06169 -10.2312
upperneck 0.699195 -12.3691 12.3613
head 1.44967 -6.19421 5.08896
rclavicle 7.05686e-015 -8.54774e-015
rhumerus -21.6568 14.6638 -58.5883
rradius 87.4191
rwrist -4.25298
rhand -20.0104 -37.4805
rfingers 7.12502
rthumb 6.32977 -67.3659
lclavicle 7.05686e-015 -8.54774e-015
lhumerus -19.454 -31.0236 90.0657
lradius 99.4662
lwrist 29.0889
lhand -17.0926 5.15686
lfingers 7.12502
lthumb 9.14602 34.9385
rfemur -64.6596 -23.4229 16.3783
rtibia 77.5864
rfoot -11.2895 3.52128
rtoes 1.83194
lfemur 3.37036 3.83553 -10.8057
ltibia 45.7071
lfoot -32.2478 34.449
ltoes -22.1571
376
root -4.07395 14.2091 -20.0478 6.39562 23.5039 4.87695
lowerback 14.0161 1.35543 -9.56244
upperback -0.274318 0.288879 0.723253
thorax -8.26592 0.562977 6.14849
lowerneck 1.02283 -9.06357 -10.0885
upperneck 0.351668 -12.3356 12.301
head 1.34399 -6.17873 5.05595
rclavicle 6.75868e-015 3.18055e-015
rhumerus -21.983 14.4059 -58.233
rradius 87.4188
rwrist -4.20001
rhand -19.92 -37.3609
rfingers 7.12502
rthumb 6.41706 -67.2437
lclavicle 6.75868e-015 3.18055e-015
lhumerus -17.6748 -31.3122 89.7226
lradius 98.8336
lwrist 28.668
lhand -16.9486 4.89251
lfingers 7.12502
lthumb 9.28493 34.668
rfemur -65.4739 -24.1504 17.216
rtibia 77.9769
rfoot -10.6926 1.03757
rtoes 1.15128
lfemur 3.19203 3.51383 -10.9821
ltibia 45.5597
lfoot -32.0826 34.5316
ltoes -22.3564
377
root -4.08081 14.2063 -20.0269 6.68053 23.8647 5.09086
lowerback 14.1657 1.22532 -9.55369
upperback -0.251667 0.104189 0.738142
thorax -8.29262 0.474498 6.20012
lowerneck 0.992799 -9.04513 -9.99716
upperneck -0.045831 -12.2771 12.3192
head 1.22164 -6.15298 5.05926
rclavicle 2.39536e-014 -2.90226e-014
rhumerus -22.3415 14.1359 -57.8817
rradius 87.3884
rwrist -4.11378
rhand -19.8252 -37.5077
rfingers 7.12502
rthumb 6.50855 -67.3876
lclavicle 2.39536e-014 -2.90226e-014
lhumerus -15.794 -31.603 89.3852
lradius 98.215
lwrist 28.3639
lhand -16.7473 4.64755
lfingers 7.12502
lthumb 9.47921 34.4144
rfemur -66.2419 -24.9459 18.1299
rtibia 78.3267
rfoot -10.2214 -1.55905
rtoes 1.77037
lfemur 3.05291 3.17051 -11.0958
ltibia 45.3219
lfoot -31.8064 34.6264
ltoes -22.6148
378
root -4.08619 14.2012 -20.0042 7.17477 24.0038 5.42693
lowerback 14.1423 1.14035 -9.66456
upperback -0.272134 -0.0275152 0.714146
thorax -8.27875 0.415111 6.26489
lowerneck 0.888293 -9.02547 -9.89847
upperneck -0.392343 -12.2149 12.3268
head 1.12491 -6.12261 5.05341
rclavicle -3.41413e-014 1.19271e-014
rhumerus -22.648 13.9007 -57.4716
rradius 87.2628
rwrist -4.10604
rhand -19.8334 -37.5495
rfingers 7.12502
rthumb 6.50067 -67.4297
lclavicle -3.41413e-014 1.19271e-014
lhumerus -13.8282 -31.8804 89.074
lradius 97.6267
lwrist 28.1211
lhand -16.8255 4.44511
lfingers 7.12502
lthumb 9.40373 34.2153
rfemur -67.3088 -25.5819 19.0973
rtibia 78.6215
rfoot -9.64123 -4.40353
rtoes 2.55171
lfemur 2.84928 2.91668 -11.4398
ltibia 45.0169
lfoot -31.5925 34.7583
ltoes -22.7503
